<svg width="2847" height="932" viewBox="0 0 2847 932" fill="none" xmlns="http://www.w3.org/2000/svg">
<g opacity="0.9">
<path fill-rule="evenodd" clip-rule="evenodd" d="M1038.1 125.101C1038.1 56.0095 982.123 -2.44746e-06 913.07 -5.46655e-06L0.33606 -4.53724e-05L0.33606 0.000198768L210.16 0.000198767C326.832 0.000198767 421.414 94.5815 421.414 211.254C421.413 327.926 326.832 422.507 210.16 422.507L0.336041 422.507L0.336024 806.899C0.336021 875.99 56.3147 932 125.368 932L289.752 932L289.752 720.354C289.752 603.899 384.157 509.494 500.613 509.494C566.46 509.494 625.258 539.676 663.927 586.962C702.595 539.676 761.393 509.494 827.24 509.494C943.696 509.494 1038.1 603.899 1038.1 720.354L1038.1 932L1038.1 932L1038.1 125.101ZM942.864 932L942.864 730.627C942.864 670.195 893.874 621.205 833.443 621.205C773.011 621.205 724.021 670.195 724.021 730.627L724.021 932L942.864 932ZM200.284 327.093L0.336045 327.093L0.336055 107.844L200.284 107.844C260.829 107.844 309.909 156.924 309.909 217.468C309.909 278.013 260.828 327.093 200.284 327.093ZM616.237 932L616.237 730.627C616.237 670.195 567.247 621.205 506.816 621.205C446.384 621.205 397.395 670.195 397.395 730.627L397.395 932L616.237 932Z" fill="white"/>
<path d="M1404.44 459.79C1426.1 459.79 1443.56 466.816 1456.81 480.868C1470.07 494.92 1476.69 513.826 1476.69 537.587V641.041C1476.69 652.448 1467.45 661.696 1456.05 661.696C1444.65 661.696 1435.4 652.448 1435.4 641.041V540.269C1435.4 526.984 1432.09 516.764 1425.46 509.611C1418.84 502.201 1409.79 498.497 1398.32 498.497C1385.58 498.497 1375.38 502.712 1367.74 511.144C1360.35 519.575 1356.65 532.221 1356.65 549.084V641.041C1356.65 652.448 1347.41 661.696 1336.01 661.696C1324.61 661.696 1315.36 652.448 1315.36 641.041V540.269C1315.36 526.984 1312.18 516.764 1305.81 509.611C1299.69 502.201 1290.9 498.497 1279.43 498.497C1266.94 498.497 1256.75 502.84 1248.85 511.527C1240.95 519.958 1237 532.477 1237 549.084V640.253C1237 651.661 1227.75 660.908 1216.35 660.908C1204.95 660.908 1195.71 651.661 1195.71 640.253V474.43L1237 464.772V487.766C1249.23 469.115 1267.45 459.79 1291.66 459.79C1316.13 459.79 1334.22 469.882 1345.95 490.066C1358.69 469.882 1378.19 459.79 1404.44 459.79Z" fill="white"/>
<path d="M1611.1 661.372C1583.06 661.372 1559.24 651.663 1539.61 632.246C1519.99 612.828 1510.17 588.94 1510.17 560.581C1510.17 532.221 1519.99 508.333 1539.61 488.916C1559.24 469.499 1583.06 459.79 1611.1 459.79C1639.39 459.79 1663.22 469.499 1682.59 488.916C1702.21 508.333 1712.02 532.221 1712.02 560.581C1712.02 588.94 1702.21 612.828 1682.59 632.246C1663.22 651.663 1639.39 661.372 1611.1 661.372ZM1568.67 603.886C1580.13 615.383 1594.28 621.132 1611.1 621.132C1627.92 621.132 1642.06 615.383 1653.53 603.886C1665 592.389 1670.74 577.954 1670.74 560.581C1670.74 543.208 1665 528.772 1653.53 517.275C1642.06 505.778 1627.92 500.03 1611.1 500.03C1594.28 500.03 1580.13 505.778 1568.67 517.275C1557.2 528.772 1551.46 543.208 1551.46 560.581C1551.46 577.954 1557.2 592.389 1568.67 603.886Z" fill="white"/>
<path d="M1849.9 459.79C1871.82 459.79 1889.53 466.816 1903.04 480.868C1916.55 494.92 1923.3 514.209 1923.3 538.736V641.041C1923.3 652.448 1914.06 661.696 1902.66 661.696C1891.25 661.696 1882.01 652.448 1882.01 641.041V542.952C1882.01 528.645 1878.19 517.659 1870.54 509.994C1862.9 502.329 1852.45 498.497 1839.2 498.497C1824.67 498.497 1812.94 503.096 1804.02 512.293C1795.1 521.235 1790.64 535.032 1790.64 553.683V641.041C1790.64 652.448 1781.4 661.696 1770 661.696C1758.6 661.696 1749.36 652.448 1749.36 641.041V474.43L1790.64 464.772V489.299C1803.13 469.626 1822.88 459.79 1849.9 459.79Z" fill="white"/>
<path d="M2074.98 488.211C2074.98 499.217 2066.06 508.14 2055.06 508.14H2027.57V600.116C2027.57 608.036 2029.36 613.785 2032.92 617.361C2036.49 620.683 2041.72 622.599 2048.6 623.11C2050.55 623.18 2052.63 623.221 2054.83 623.234C2065.8 623.296 2074.98 631.916 2074.98 642.888C2074.98 652.598 2067.73 660.902 2058.04 661.374C2035.13 662.488 2018.09 659.315 2006.93 651.853C1993.17 642.399 1986.28 625.154 1986.28 600.116V508.14V468.283V426.894L2027.57 414.63V468.283H2055.06C2066.06 468.283 2074.98 477.205 2074.98 488.211Z" fill="white"/>
<path d="M2255.41 474.43L2296.7 464.772V641.041C2296.7 652.449 2287.45 661.696 2276.05 661.696C2264.65 661.696 2255.41 652.449 2255.41 641.041V628.797C2239.86 650.513 2217.56 661.372 2188.51 661.372C2162.26 661.372 2139.83 651.663 2121.22 632.246C2102.62 612.573 2093.32 588.685 2093.32 560.581C2093.32 532.221 2102.62 508.333 2121.22 488.916C2139.83 469.499 2162.26 459.79 2188.51 459.79C2217.56 459.79 2239.86 470.521 2255.41 491.982V474.43ZM2151.81 604.653C2163.28 616.15 2177.68 621.898 2195.01 621.898C2212.34 621.898 2226.74 616.15 2238.2 604.653C2249.67 592.9 2255.41 578.21 2255.41 560.581C2255.41 542.952 2249.67 528.389 2238.2 516.892C2226.74 505.14 2212.34 499.263 2195.01 499.263C2177.68 499.263 2163.28 505.14 2151.81 516.892C2140.34 528.389 2134.6 542.952 2134.6 560.581C2134.6 578.21 2140.34 592.9 2151.81 604.653Z" fill="white"/>
<path d="M2496.97 479.412L2537.49 469.754V652.557C2537.49 681.683 2527.94 704.038 2508.82 719.623C2489.71 735.208 2466.51 743 2439.24 743C2403.64 743 2377.09 732.921 2359.6 712.761C2352.45 704.512 2356.09 692.292 2365.53 686.799C2375.66 680.905 2388.42 685.348 2397.52 692.735C2407.95 701.207 2422.11 705.443 2440.01 705.443C2457.85 705.443 2471.74 700.717 2481.68 691.264C2491.87 682.066 2496.97 669.164 2496.97 652.557V629.18C2481.42 651.407 2459.25 662.521 2430.45 662.521C2403.44 662.521 2380.63 652.94 2362.02 633.779C2343.42 614.361 2334.11 590.984 2334.11 563.647C2334.11 536.309 2343.42 513.06 2362.02 493.898C2380.63 474.481 2403.44 464.772 2430.45 464.772C2459.25 464.772 2481.42 475.886 2496.97 498.114V479.412ZM2392.61 606.569C2404.33 618.066 2418.86 623.815 2436.19 623.815C2453.52 623.815 2467.92 618.066 2479.39 606.569C2491.11 595.072 2496.97 580.765 2496.97 563.647C2496.97 546.529 2491.11 532.221 2479.39 520.724C2467.92 509.227 2453.52 503.479 2436.19 503.479C2418.86 503.479 2404.33 509.227 2392.61 520.724C2381.14 532.221 2375.4 546.529 2375.4 563.647C2375.4 580.765 2381.14 595.072 2392.61 606.569Z" fill="white"/>
<path d="M2618.11 578.21C2621.17 592.773 2628.18 604.014 2639.14 611.934C2650.1 619.599 2663.48 623.431 2679.28 623.431C2693.95 623.431 2706.16 619.883 2715.92 612.786C2724.28 606.709 2735.48 603.706 2744.4 608.929C2754.26 614.705 2757.33 627.846 2749.07 635.749C2731.23 652.831 2707.84 661.372 2678.9 661.372C2647.8 661.372 2622.7 651.918 2603.58 633.012C2584.47 613.85 2574.91 589.707 2574.91 560.581C2574.91 531.966 2584.34 508.078 2603.2 488.916C2622.06 469.499 2646.27 459.79 2675.84 459.79C2703.87 459.79 2726.81 469.626 2744.65 489.299C2762.74 508.972 2771.79 532.86 2771.79 560.964C2771.79 565.307 2771.28 571.056 2770.26 578.21H2618.11ZM2617.73 544.485H2730.12C2727.32 528.9 2720.82 517.148 2710.63 509.227C2700.69 501.307 2688.96 497.347 2675.46 497.347C2660.16 497.347 2647.42 501.563 2637.23 509.994C2627.03 518.425 2620.53 529.922 2617.73 544.485Z" fill="white"/>
<path d="M2837.93 652.557C2832.32 658.178 2825.56 660.988 2817.66 660.988C2809.76 660.988 2803.01 658.178 2797.4 652.557C2791.8 646.936 2788.99 640.166 2788.99 632.246C2788.99 624.326 2791.67 617.555 2797.02 611.934C2802.63 606.313 2809.51 603.503 2817.66 603.503C2825.56 603.503 2832.32 606.313 2837.93 611.934C2843.53 617.555 2846.34 624.326 2846.34 632.246C2846.34 640.166 2843.53 646.936 2837.93 652.557Z" fill="white"/>
<path d="M1314.7 84.0389C1343.42 84.0389 1367.96 94.7807 1388.31 116.264C1408.67 137.469 1418.85 163.416 1418.85 194.107C1418.85 225.077 1408.67 251.164 1388.31 272.369C1367.96 293.573 1343.42 304.176 1314.7 304.176C1282.91 304.176 1258.51 292.457 1241.49 269.021V359.838C1241.49 372.319 1231.38 382.437 1218.91 382.437C1206.43 382.437 1196.32 372.319 1196.32 359.838V99.1375L1241.49 89.4795V119.612C1258.51 95.8967 1282.91 84.0389 1314.7 84.0389ZM1260.32 242.236C1272.87 254.791 1288.62 261.069 1307.58 261.069C1326.55 261.069 1342.3 254.791 1354.85 242.236C1367.4 229.402 1373.67 213.359 1373.67 194.107C1373.67 174.856 1367.4 158.952 1354.85 146.397C1342.3 133.563 1326.55 127.146 1307.58 127.146C1288.62 127.146 1272.87 133.563 1260.32 146.397C1247.77 158.952 1241.49 174.856 1241.49 194.107C1241.49 213.359 1247.77 229.402 1260.32 242.236Z" fill="white"/>
<path d="M1504.97 124.634C1513.3 105.731 1526.95 93.7129 1545.94 88.5812C1558.57 85.1684 1569.38 96.3211 1569.38 109.407C1569.38 123.093 1557.51 133.37 1544.38 137.192C1537.13 139.3 1530.41 142.648 1524.21 147.234C1511.38 156.441 1504.97 171.787 1504.97 193.27V276.135C1504.97 288.617 1494.85 298.735 1482.38 298.735C1469.9 298.735 1459.79 288.617 1459.79 276.135V99.1375L1504.97 89.4795V124.634Z" fill="white"/>
<path d="M1691.67 304.176C1661 304.176 1634.93 293.573 1613.45 272.369C1591.98 251.164 1581.25 225.077 1581.25 194.107C1581.25 163.137 1591.98 137.05 1613.45 115.846C1634.93 94.6412 1661 84.0389 1691.67 84.0389C1722.63 84.0389 1748.7 94.6412 1769.89 115.846C1791.37 137.05 1802.1 163.137 1802.1 194.107C1802.1 225.077 1791.37 251.164 1769.89 272.369C1748.7 293.573 1722.63 304.176 1691.67 304.176ZM1645.24 241.399C1657.79 253.954 1673.27 260.232 1691.67 260.232C1710.08 260.232 1725.56 253.954 1738.1 241.399C1750.65 228.844 1756.93 213.08 1756.93 194.107C1756.93 175.135 1750.65 159.371 1738.1 146.816C1725.56 134.26 1710.08 127.983 1691.67 127.983C1673.27 127.983 1657.79 134.26 1645.24 146.816C1632.7 159.371 1626.42 175.135 1626.42 194.107C1626.42 213.08 1632.7 228.844 1645.24 241.399Z" fill="white"/>
<path d="M1945.19 43.8618C1912.28 40.7928 1895.83 54.6036 1895.83 85.2944V89.4795H1923.44C1935.45 89.4795 1945.19 99.223 1945.19 111.242C1945.19 123.261 1935.45 133.005 1923.44 133.005H1895.83V276.135C1895.83 288.617 1885.72 298.735 1873.24 298.735C1860.77 298.735 1850.66 288.617 1850.66 276.135V133.005V89.4795V85.2944C1850.66 56.5566 1858.6 34.7941 1874.5 20.0067C1890.67 4.9403 1923.89 -1.61638 1954.84 0.336666L1945.19 43.8618Z" fill="white"/>
<path d="M1257.1 849.462H1265.21V930.609H1257.1V892.702H1213.08V930.609H1204.97V849.462H1213.08V885.051H1257.1V849.462Z" fill="white"/>
<path d="M1367.8 930.609L1360.27 910.67H1321.81L1314.29 930.609H1305.71L1336.87 849.462H1345.21L1376.37 930.609H1367.8ZM1324.71 903.019H1357.38L1341.04 859.548L1324.71 903.019Z" fill="white"/>
<path d="M1462.1 849.462V857.113H1437.19V930.609H1429.09V857.113H1404.18V849.462H1462.1Z" fill="white"/>
<path d="M1552.45 849.462V930.609H1544.34V898.15H1524.88L1502.64 930.609H1493.37L1515.96 897.802C1510.17 896.798 1505.34 894.054 1501.48 889.572C1497.62 885.012 1495.69 879.757 1495.69 873.806C1495.69 867.083 1498.04 861.364 1502.76 856.65C1507.54 851.858 1513.3 849.462 1520.01 849.462H1552.45ZM1520.01 890.499H1544.34V857.113H1520.01C1515.54 857.113 1511.71 858.736 1508.55 861.982C1505.38 865.228 1503.8 869.169 1503.8 873.806C1503.8 878.366 1505.38 882.307 1508.55 885.631C1511.71 888.876 1515.54 890.499 1520.01 890.499Z" fill="white"/>
<path d="M1687.99 930.609H1678.49L1645.13 890.963V930.609H1637.02V890.963L1603.66 930.609H1594.16L1629.03 888.876L1595.32 849.462H1604.82L1637.02 886.906V849.462H1645.13V886.906L1677.33 849.462H1686.83L1653.12 888.876L1687.99 930.609Z" fill="white"/>
<path d="M1781.77 849.462H1789.87V930.609H1781.77V892.702H1737.75V930.609H1729.64V849.462H1737.75V885.051H1781.77V849.462Z" fill="white"/>
<path d="M1838.49 930.609V849.462H1846.6V879.602H1867.45C1874.71 879.602 1880.77 882.037 1885.63 886.906C1890.5 891.774 1892.93 897.841 1892.93 905.106C1892.93 912.37 1890.5 918.437 1885.63 923.306C1880.77 928.174 1874.71 930.609 1867.45 930.609H1838.49ZM1901.62 930.609V849.462H1909.73V930.609H1901.62ZM1846.6 922.958H1867.45C1872.47 922.958 1876.6 921.296 1879.84 917.973C1883.16 914.573 1884.82 910.284 1884.82 905.106C1884.82 899.928 1883.16 895.677 1879.84 892.354C1876.6 888.954 1872.47 887.253 1867.45 887.253H1846.6V922.958Z" fill="white"/>
<path d="M1966.53 922.958H2005.91V930.609H1958.42V849.462H2005.33V857.113H1966.53V885.862H2002.44V893.513H1966.53V922.958Z" fill="white"/>
<path d="M2166.95 849.462V930.609H2158.85V857.113H2117.15V930.609H2109.04V849.462H2166.95Z" fill="white"/>
<path d="M2282.69 919.828C2274.58 927.943 2264.66 932 2252.92 932C2241.18 932 2231.26 927.943 2223.15 919.828C2215.04 911.636 2210.99 901.705 2210.99 890.036C2210.99 878.366 2215.04 868.474 2223.15 860.359C2231.26 852.167 2241.18 848.071 2252.92 848.071C2264.66 848.071 2274.58 852.167 2282.69 860.359C2290.8 868.474 2294.85 878.366 2294.85 890.036C2294.85 901.705 2290.8 911.636 2282.69 919.828ZM2228.83 914.264C2235.31 920.833 2243.34 924.117 2252.92 924.117C2262.5 924.117 2270.53 920.833 2277.01 914.264C2283.5 907.617 2286.74 899.541 2286.74 890.036C2286.74 880.53 2283.5 872.493 2277.01 865.924C2270.53 859.277 2262.5 855.954 2252.92 855.954C2243.34 855.954 2235.31 859.277 2228.83 865.924C2222.34 872.493 2219.1 880.53 2219.1 890.036C2219.1 899.541 2222.34 907.617 2228.83 914.264Z" fill="white"/>
<path d="M2385.16 849.462V857.113H2360.26V930.609H2352.15V857.113H2327.25V849.462H2385.16Z" fill="white"/>
<path d="M2489.3 919.828C2481.19 927.943 2471.27 932 2459.53 932C2447.79 932 2437.87 927.943 2429.76 919.828C2421.65 911.636 2417.6 901.705 2417.6 890.036C2417.6 878.366 2421.65 868.474 2429.76 860.359C2437.87 852.167 2447.79 848.071 2459.53 848.071C2471.27 848.071 2481.19 852.167 2489.3 860.359C2497.41 868.474 2501.46 878.366 2501.46 890.036C2501.46 901.705 2497.41 911.636 2489.3 919.828ZM2435.44 914.264C2441.92 920.833 2449.95 924.117 2459.53 924.117C2469.11 924.117 2477.14 920.833 2483.62 914.264C2490.11 907.617 2493.35 899.541 2493.35 890.036C2493.35 880.53 2490.11 872.493 2483.62 865.924C2477.14 859.277 2469.11 855.954 2459.53 855.954C2449.95 855.954 2441.92 859.277 2435.44 865.924C2428.95 872.493 2425.71 880.53 2425.71 890.036C2425.71 899.541 2428.95 907.617 2435.44 914.264Z" fill="white"/>
<path d="M2533.28 930.609V923.422C2538.91 924.194 2543.12 922.456 2545.9 918.205C2548.76 913.877 2550.19 905.994 2550.19 894.557V849.462H2602.78V930.609H2594.67V857.113H2558.3V894.788C2558.3 902.13 2557.72 908.274 2556.56 913.22C2555.4 918.166 2553.66 921.953 2551.35 924.581C2549.11 927.131 2546.52 928.87 2543.59 929.797C2540.73 930.647 2537.29 930.918 2533.28 930.609Z" fill="white"/>
<path d="M2708.22 930.609H2697.57L2659.57 891.311V930.609H2651.46V849.462H2659.57V886.558L2696.41 849.462H2707.06L2668.14 888.876L2708.22 930.609Z" fill="white"/>
<path d="M2800.9 930.609V864.532L2755.72 930.609H2748.77V849.462H2756.88V915.539L2802.06 849.462H2809.01V930.609H2800.9Z" fill="white"/>
</g>
</svg>
