<svg width="1039" height="932" viewBox="0 0 1039 932" fill="none" xmlns="http://www.w3.org/2000/svg">
<g opacity="0.9">
<path fill-rule="evenodd" clip-rule="evenodd" d="M1038.34 125.101C1038.34 56.0095 982.345 -2.44746e-06 913.276 -5.46655e-06L0.335938 -4.53724e-05L0.335937 0.000198768L210.255 0.000198767C326.927 0.000198767 421.508 94.5815 421.508 211.254C421.508 327.926 326.927 422.507 210.255 422.507L0.335919 422.507L0.335902 806.899C0.335899 875.99 56.3272 932 125.396 932L289.817 932L289.817 720.402C289.817 603.92 384.244 509.494 500.725 509.494C566.588 509.494 625.399 539.683 664.076 586.979C702.753 539.683 761.564 509.494 827.427 509.494C943.908 509.494 1038.34 603.92 1038.34 720.402L1038.34 932L1038.34 932L1038.34 125.101ZM943.076 932L943.076 730.651C943.076 670.206 894.075 621.205 833.63 621.205C773.185 621.205 724.184 670.206 724.184 730.651L724.184 932L943.076 932ZM200.354 327.093L0.335923 327.093L0.335933 107.844L200.354 107.844C260.898 107.844 309.979 156.924 309.979 217.468C309.979 278.013 260.898 327.093 200.354 327.093ZM616.376 932L616.376 730.651C616.376 670.206 567.375 621.205 506.93 621.205C446.485 621.205 397.484 670.206 397.484 730.651L397.484 932L616.376 932Z" fill="white"/>
</g>
</svg>
