<svg width="1605" height="1514" viewBox="0 0 1605 1514" fill="none" xmlns="http://www.w3.org/2000/svg">
<path fill-rule="evenodd" clip-rule="evenodd" d="M1321.34 125.101C1321.34 56.0095 1265.34 -2.44746e-06 1196.28 -5.46655e-06L283.336 -4.53724e-05L283.336 0.000198768L493.255 0.000198767C609.927 0.000198767 704.508 94.5815 704.508 211.254C704.508 327.926 609.927 422.507 493.255 422.507L283.336 422.507L283.336 806.899C283.336 875.99 339.327 932 408.396 932L572.817 932L572.817 720.402C572.817 603.92 667.244 509.494 783.725 509.494C849.588 509.494 908.399 539.683 947.076 586.979C985.753 539.683 1044.56 509.494 1110.43 509.494C1226.91 509.494 1321.34 603.92 1321.34 720.402L1321.34 932L1321.34 932L1321.34 125.101ZM1226.08 932L1226.08 730.651C1226.08 670.206 1177.08 621.205 1116.63 621.205C1056.18 621.205 1007.18 670.206 1007.18 730.651L1007.18 932L1226.08 932ZM483.354 327.093L283.336 327.093L283.336 107.844L483.354 107.844C543.898 107.844 592.979 156.924 592.979 217.468C592.979 278.013 543.898 327.093 483.354 327.093ZM899.376 932L899.376 730.651C899.376 670.206 850.375 621.205 789.93 621.205C729.485 621.205 680.484 670.206 680.484 730.651L680.484 932L899.376 932Z" fill="url(#paint0_linear)"/>
<path d="M692.708 1194.82C706.414 1194.82 717.46 1199.26 725.845 1208.13C734.23 1217 738.423 1228.93 738.423 1243.93V1309.24C738.423 1316.44 732.575 1322.28 725.361 1322.28C718.148 1322.28 712.3 1316.44 712.3 1309.24V1245.63C712.3 1237.24 710.204 1230.79 706.011 1226.27C701.819 1221.6 696.094 1219.26 688.838 1219.26C680.775 1219.26 674.325 1221.92 669.488 1227.24C664.812 1232.56 662.473 1240.55 662.473 1251.19V1309.24C662.473 1316.44 656.626 1322.28 649.412 1322.28C642.199 1322.28 636.351 1316.44 636.351 1309.24V1245.63C636.351 1237.24 634.335 1230.79 630.304 1226.27C626.434 1221.6 620.871 1219.26 613.614 1219.26C605.713 1219.26 599.263 1222 594.264 1227.48C589.266 1232.8 586.766 1240.71 586.766 1251.19V1308.74C586.766 1315.95 580.918 1321.78 573.705 1321.78C566.491 1321.78 560.644 1315.95 560.644 1308.74V1204.06L586.766 1197.97V1212.48C594.506 1200.71 606.036 1194.82 621.354 1194.82C636.835 1194.82 648.283 1201.19 655.701 1213.93C663.763 1201.19 676.099 1194.82 692.708 1194.82Z" fill="#323232"/>
<path d="M823.463 1322.08C805.725 1322.08 790.648 1315.95 778.232 1303.69C765.816 1291.43 759.607 1276.35 759.607 1258.45C759.607 1240.55 765.816 1225.47 778.232 1213.21C790.648 1200.95 805.725 1194.82 823.463 1194.82C841.362 1194.82 856.439 1200.95 868.694 1213.21C881.11 1225.47 887.318 1240.55 887.318 1258.45C887.318 1276.35 881.11 1291.43 868.694 1303.69C856.439 1315.95 841.362 1322.08 823.463 1322.08ZM796.615 1285.79C803.871 1293.04 812.82 1296.67 823.463 1296.67C834.105 1296.67 843.055 1293.04 850.311 1285.79C857.567 1278.53 861.195 1269.42 861.195 1258.45C861.195 1247.48 857.567 1238.37 850.311 1231.11C843.055 1223.85 834.105 1220.22 823.463 1220.22C812.82 1220.22 803.871 1223.85 796.615 1231.11C789.358 1238.37 785.73 1247.48 785.73 1258.45C785.73 1269.42 789.358 1278.53 796.615 1285.79Z" fill="#323232"/>
<path d="M974.552 1194.82C988.42 1194.82 999.627 1199.26 1008.17 1208.13C1016.72 1217 1020.99 1229.18 1020.99 1244.66V1309.24C1020.99 1316.44 1015.14 1322.28 1007.93 1322.28C1000.72 1322.28 994.87 1316.44 994.87 1309.24V1247.32C994.87 1238.29 992.451 1231.35 987.614 1226.51C982.776 1221.68 976.165 1219.26 967.78 1219.26C958.588 1219.26 951.171 1222.16 945.527 1227.97C939.883 1233.61 937.061 1242.32 937.061 1254.09V1309.24C937.061 1316.44 931.214 1322.28 924 1322.28C916.787 1322.28 910.939 1316.44 910.939 1309.24V1204.06L937.061 1197.97V1213.45C944.963 1201.03 957.46 1194.82 974.552 1194.82Z" fill="#323232"/>
<path d="M1116.96 1212.76C1116.96 1219.71 1111.32 1225.34 1104.36 1225.34H1086.97V1283.41C1086.97 1288.41 1088.09 1292.04 1090.35 1294.29C1092.61 1296.39 1095.92 1297.6 1100.27 1297.92C1101.51 1297.97 1102.82 1297.99 1104.21 1298C1111.15 1298.04 1116.96 1303.48 1116.96 1310.41C1116.96 1316.54 1112.38 1321.78 1106.24 1322.08C1091.75 1322.78 1080.97 1320.78 1073.9 1316.07C1065.2 1310.1 1060.84 1299.21 1060.84 1283.41V1225.34V1200.18V1174.06L1086.97 1166.31V1200.18H1104.36C1111.32 1200.18 1116.96 1205.82 1116.96 1212.76Z" fill="#323232"/>
<path d="M1231.12 1204.06L1257.24 1197.97V1309.24C1257.24 1316.44 1251.39 1322.28 1244.18 1322.28C1236.97 1322.28 1231.12 1316.44 1231.12 1309.24V1301.51C1221.28 1315.22 1207.17 1322.08 1188.79 1322.08C1172.18 1322.08 1157.99 1315.95 1146.22 1303.69C1134.45 1291.27 1128.56 1276.19 1128.56 1258.45C1128.56 1240.55 1134.45 1225.47 1146.22 1213.21C1157.99 1200.95 1172.18 1194.82 1188.79 1194.82C1207.17 1194.82 1221.28 1201.6 1231.12 1215.14V1204.06ZM1165.57 1286.27C1172.83 1293.53 1181.94 1297.16 1192.9 1297.16C1203.87 1297.16 1212.98 1293.53 1220.23 1286.27C1227.49 1278.85 1231.12 1269.58 1231.12 1258.45C1231.12 1247.32 1227.49 1238.13 1220.23 1230.87C1212.98 1223.45 1203.87 1219.74 1192.9 1219.74C1181.94 1219.74 1172.83 1223.45 1165.57 1230.87C1158.31 1238.13 1154.69 1247.32 1154.69 1258.45C1154.69 1269.58 1158.31 1278.85 1165.57 1286.27Z" fill="#323232"/>
<path d="M1383.96 1207.21L1409.59 1201.11V1316.51C1409.59 1334.9 1403.55 1349.01 1391.45 1358.85C1379.36 1368.69 1364.69 1373.61 1347.43 1373.61C1324.91 1373.61 1308.11 1367.24 1297.04 1354.52C1292.52 1349.31 1294.82 1341.6 1300.79 1338.13C1307.2 1334.41 1315.28 1337.21 1321.03 1341.87C1327.63 1347.22 1336.59 1349.9 1347.92 1349.9C1359.2 1349.9 1367.99 1346.91 1374.28 1340.95C1380.73 1335.14 1383.96 1326.99 1383.96 1316.51V1301.75C1374.12 1315.79 1360.09 1322.8 1341.87 1322.8C1324.78 1322.8 1310.35 1316.75 1298.57 1304.66C1286.8 1292.4 1280.92 1277.64 1280.92 1260.38C1280.92 1243.13 1286.8 1228.45 1298.57 1216.35C1310.35 1204.1 1324.78 1197.97 1341.87 1197.97C1360.09 1197.97 1374.12 1204.98 1383.96 1219.02V1207.21ZM1317.92 1287.48C1325.34 1294.74 1334.53 1298.37 1345.5 1298.37C1356.46 1298.37 1365.57 1294.74 1372.83 1287.48C1380.25 1280.22 1383.96 1271.19 1383.96 1260.38C1383.96 1249.58 1380.25 1240.55 1372.83 1233.29C1365.57 1226.03 1356.46 1222.4 1345.5 1222.4C1334.53 1222.4 1325.34 1226.03 1317.92 1233.29C1310.67 1240.55 1307.04 1249.58 1307.04 1260.38C1307.04 1271.19 1310.67 1280.22 1317.92 1287.48Z" fill="#323232"/>
<path d="M1460.6 1269.58C1462.54 1278.77 1466.97 1285.87 1473.91 1290.87C1480.84 1295.71 1489.3 1298.12 1499.3 1298.12C1508.58 1298.12 1516.31 1295.88 1522.49 1291.41C1527.78 1287.57 1534.86 1285.67 1540.51 1288.97C1546.74 1292.62 1548.69 1300.91 1543.46 1305.9C1532.17 1316.68 1517.37 1322.08 1499.06 1322.08C1479.39 1322.08 1463.5 1316.11 1451.41 1304.17C1439.32 1292.08 1433.27 1276.84 1433.27 1258.45C1433.27 1240.39 1439.24 1225.31 1451.17 1213.21C1463.1 1200.95 1478.42 1194.82 1497.13 1194.82C1514.86 1194.82 1529.38 1201.03 1540.66 1213.45C1552.11 1225.87 1557.84 1240.95 1557.84 1258.69C1557.84 1261.43 1557.51 1265.06 1556.87 1269.58H1460.6ZM1460.36 1248.29H1531.47C1529.7 1238.45 1525.59 1231.03 1519.14 1226.03C1512.85 1221.03 1505.43 1218.53 1496.88 1218.53C1487.21 1218.53 1479.15 1221.19 1472.7 1226.51C1466.25 1231.84 1462.13 1239.09 1460.36 1248.29Z" fill="#323232"/>
<path d="M1599.68 1316.51C1596.13 1320.06 1591.86 1321.83 1586.86 1321.83C1581.86 1321.83 1577.59 1320.06 1574.04 1316.51C1570.49 1312.96 1568.72 1308.69 1568.72 1303.69C1568.72 1298.69 1570.41 1294.42 1573.8 1290.87C1577.35 1287.32 1581.7 1285.54 1586.86 1285.54C1591.86 1285.54 1596.13 1287.32 1599.68 1290.87C1603.23 1294.42 1605 1298.69 1605 1303.69C1605 1308.69 1603.23 1312.96 1599.68 1316.51Z" fill="#323232"/>
<path d="M74.8965 1185.05C93.0692 1185.05 108.595 1191.83 121.475 1205.39C134.355 1218.78 140.795 1235.16 140.795 1254.53C140.795 1274.09 134.355 1290.55 121.475 1303.94C108.595 1317.33 93.0692 1324.02 74.8965 1324.02C54.7829 1324.02 39.3449 1316.62 28.5824 1301.83V1359.16C28.5824 1367.04 22.184 1373.42 14.2912 1373.42C6.39839 1373.42 0 1367.04 0 1359.16V1194.58L28.5824 1188.49V1207.51C39.3449 1192.54 54.7829 1185.05 74.8965 1185.05ZM40.4917 1284.92C48.4313 1292.84 58.3998 1296.81 70.3974 1296.81C82.3949 1296.81 92.3635 1292.84 100.303 1284.92C108.243 1276.82 112.212 1266.69 112.212 1254.53C112.212 1242.38 108.243 1232.34 100.303 1224.42C92.3635 1216.31 82.3949 1212.26 70.3974 1212.26C58.3998 1212.26 48.4313 1216.31 40.4917 1224.42C32.5522 1232.34 28.5824 1242.38 28.5824 1254.53C28.5824 1266.69 32.5522 1276.82 40.4917 1284.92Z" fill="#323232"/>
<path d="M195.282 1210.68C200.552 1198.74 209.193 1191.16 221.206 1187.92C229.195 1185.76 236.038 1192.8 236.038 1201.07C236.038 1209.71 228.528 1216.19 220.217 1218.61C215.634 1219.94 211.38 1222.05 207.456 1224.94C199.34 1230.76 195.282 1240.44 195.282 1254.01V1306.32C195.282 1314.2 188.884 1320.58 180.991 1320.58C173.098 1320.58 166.7 1314.2 166.7 1306.32V1194.58L195.282 1188.49V1210.68Z" fill="#323232"/>
<path d="M313.412 1324.02C294.004 1324.02 277.507 1317.33 263.922 1303.94C250.337 1290.55 243.544 1274.09 243.544 1254.53C243.544 1234.98 250.337 1218.52 263.922 1205.13C277.507 1191.74 294.004 1185.05 313.412 1185.05C332.996 1185.05 349.493 1191.74 362.902 1205.13C376.487 1218.52 383.28 1234.98 383.28 1254.53C383.28 1274.09 376.487 1290.55 362.902 1303.94C349.493 1317.33 332.996 1324.02 313.412 1324.02ZM284.035 1284.39C291.975 1292.31 301.767 1296.28 313.412 1296.28C325.057 1296.28 334.849 1292.31 342.788 1284.39C350.728 1276.46 354.698 1266.51 354.698 1254.53C354.698 1242.56 350.728 1232.61 342.788 1224.68C334.849 1216.75 325.057 1212.79 313.412 1212.79C301.767 1212.79 291.975 1216.75 284.035 1224.68C276.096 1232.61 272.126 1242.56 272.126 1254.53C272.126 1266.51 276.096 1276.46 284.035 1284.39Z" fill="#323232"/>
<path d="M473.812 1159.69C452.992 1157.75 442.583 1166.47 442.583 1185.84V1188.49H460.05C467.65 1188.49 473.812 1194.64 473.812 1202.22C473.812 1209.81 467.65 1215.96 460.05 1215.96H442.583V1306.32C442.583 1314.2 436.184 1320.58 428.291 1320.58C420.399 1320.58 414 1314.2 414 1306.32V1215.96V1188.49V1185.84C414 1167.7 419.029 1153.96 429.085 1144.63C439.319 1135.12 460.335 1130.98 479.919 1132.21L473.812 1159.69Z" fill="#323232"/>
<path d="M244.209 1452.67H250.249V1512.97H244.209V1484.8H211.422V1512.97H205.382V1452.67H211.422V1479.12H244.209V1452.67Z" fill="#323232"/>
<path d="M326.67 1512.97L321.061 1498.15H292.415L286.807 1512.97H280.422L303.632 1452.67H309.844L333.055 1512.97H326.67ZM294.572 1492.47H318.904L306.738 1460.17L294.572 1492.47Z" fill="#323232"/>
<path d="M396.911 1452.67V1458.36H378.36V1512.97H372.32V1458.36H353.769V1452.67H396.911Z" fill="#323232"/>
<path d="M464.212 1452.67V1512.97H458.173V1488.85H443.677L427.111 1512.97H420.208L437.033 1488.59C432.719 1487.84 429.124 1485.81 426.248 1482.47C423.372 1479.09 421.934 1475.18 421.934 1470.76C421.934 1465.76 423.688 1461.52 427.197 1458.01C430.763 1454.45 435.049 1452.67 440.053 1452.67H464.212ZM440.053 1483.16H458.173V1458.36H440.053C436.717 1458.36 433.869 1459.56 431.511 1461.97C429.153 1464.39 427.973 1467.31 427.973 1470.76C427.973 1474.15 429.153 1477.08 431.511 1479.55C433.869 1481.96 436.717 1483.16 440.053 1483.16Z" fill="#323232"/>
<path d="M565.174 1512.97H558.099L533.249 1483.51V1512.97H527.21V1483.51L502.36 1512.97H495.285L521.256 1481.96L496.148 1452.67H503.223L527.21 1480.49V1452.67H533.249V1480.49L557.236 1452.67H564.312L539.203 1481.96L565.174 1512.97Z" fill="#323232"/>
<path d="M635.03 1452.67H641.07V1512.97H635.03V1484.8H602.243V1512.97H596.203V1452.67H602.243V1479.12H635.03V1452.67Z" fill="#323232"/>
<path d="M677.283 1512.97V1452.67H683.322V1475.07H698.853C704.26 1475.07 708.776 1476.88 712.4 1480.49C716.024 1484.11 717.836 1488.62 717.836 1494.02C717.836 1499.41 716.024 1503.92 712.4 1507.54C708.776 1511.16 704.26 1512.97 698.853 1512.97H677.283ZM724.307 1512.97V1452.67H730.347V1512.97H724.307ZM683.322 1507.28H698.853C702.592 1507.28 705.67 1506.05 708.086 1503.58C710.559 1501.05 711.796 1497.86 711.796 1494.02C711.796 1490.17 710.559 1487.01 708.086 1484.54C705.67 1482.02 702.592 1480.75 698.853 1480.75H683.322V1507.28Z" fill="#323232"/>
<path d="M772.66 1507.28H801.996V1512.97H766.62V1452.67H801.565V1458.36H772.66V1479.72H799.408V1485.4H772.66V1507.28Z" fill="#323232"/>
<path d="M921.954 1452.67V1512.97H915.914V1458.36H884.852V1512.97H878.812V1452.67H921.954Z" fill="#323232"/>
<path d="M1008.16 1504.96C1002.12 1510.99 994.733 1514 985.99 1514C977.246 1514 969.855 1510.99 963.815 1504.96C957.775 1498.87 954.755 1491.49 954.755 1482.82C954.755 1474.15 957.775 1466.8 963.815 1460.77C969.855 1454.68 977.246 1451.64 985.99 1451.64C994.733 1451.64 1002.12 1454.68 1008.16 1460.77C1014.2 1466.8 1017.22 1474.15 1017.22 1482.82C1017.22 1491.49 1014.2 1498.87 1008.16 1504.96ZM968.043 1500.82C972.875 1505.7 978.857 1508.14 985.99 1508.14C993.123 1508.14 999.105 1505.7 1003.94 1500.82C1008.77 1495.88 1011.18 1489.88 1011.18 1482.82C1011.18 1475.76 1008.77 1469.78 1003.94 1464.9C999.105 1459.96 993.123 1457.5 985.99 1457.5C978.857 1457.5 972.875 1459.96 968.043 1464.9C963.211 1469.78 960.795 1475.76 960.795 1482.82C960.795 1489.88 963.211 1495.88 968.043 1500.82Z" fill="#323232"/>
<path d="M1084.5 1452.67V1458.36H1065.95V1512.97H1059.91V1458.36H1041.36V1452.67H1084.5Z" fill="#323232"/>
<path d="M1162.07 1504.96C1156.03 1510.99 1148.63 1514 1139.89 1514C1131.15 1514 1123.76 1510.99 1117.72 1504.96C1111.68 1498.87 1108.66 1491.49 1108.66 1482.82C1108.66 1474.15 1111.68 1466.8 1117.72 1460.77C1123.76 1454.68 1131.15 1451.64 1139.89 1451.64C1148.63 1451.64 1156.03 1454.68 1162.07 1460.77C1168.11 1466.8 1171.13 1474.15 1171.13 1482.82C1171.13 1491.49 1168.11 1498.87 1162.07 1504.96ZM1121.94 1500.82C1126.78 1505.7 1132.76 1508.14 1139.89 1508.14C1147.02 1508.14 1153.01 1505.7 1157.84 1500.82C1162.67 1495.88 1165.09 1489.88 1165.09 1482.82C1165.09 1475.76 1162.67 1469.78 1157.84 1464.9C1153.01 1459.96 1147.02 1457.5 1139.89 1457.5C1132.76 1457.5 1126.78 1459.96 1121.94 1464.9C1117.11 1469.78 1114.7 1475.76 1114.7 1482.82C1114.7 1489.88 1117.11 1495.88 1121.94 1500.82Z" fill="#323232"/>
<path d="M1194.83 1512.97V1507.63C1199.02 1508.2 1202.16 1506.91 1204.23 1503.75C1206.36 1500.53 1207.42 1494.68 1207.42 1486.18V1452.67H1246.6V1512.97H1240.56V1458.36H1213.46V1486.35C1213.46 1491.81 1213.03 1496.37 1212.17 1500.05C1211.31 1503.72 1210.01 1506.54 1208.29 1508.49C1206.62 1510.38 1204.69 1511.67 1202.51 1512.36C1200.38 1513 1197.82 1513.2 1194.83 1512.97Z" fill="#323232"/>
<path d="M1325.14 1512.97H1317.2L1288.9 1483.77V1512.97H1282.86V1452.67H1288.9V1480.24L1316.34 1452.67H1324.28L1295.29 1481.96L1325.14 1512.97Z" fill="#323232"/>
<path d="M1394.17 1512.97V1463.87L1360.52 1512.97H1355.35V1452.67H1361.39V1501.77L1395.04 1452.67H1400.21V1512.97H1394.17Z" fill="#323232"/>
<defs>
<linearGradient id="paint0_linear" x1="283.336" y1="932" x2="1321.3" y2="0.333549" gradientUnits="userSpaceOnUse">
<stop stop-color="#111111"/>
<stop offset="1" stop-color="#545454"/>
</linearGradient>
</defs>
</svg>
